<?xml version="1.0" ?><svg width="32px" height="32px" viewBox="0 0 32 32" xmlns="http://www.w3.org/2000/svg"><g data-name="6. Diamond" id="_6._Diamond"><path d="M31.89,14.55l-4-8A1,1,0,0,0,27,6H5a1,1,0,0,0-.89.55l-4,8,0,0a.32.32,0,0,1,0,.09,2.38,2.38,0,0,0,0,.26S0,15,0,15a.43.43,0,0,0,0,.05,1.27,1.27,0,0,0,.06.28s0,.05,0,.08a.8.8,0,0,0,.18.27l15,16a1,1,0,0,0,1.46,0l15-16A1,1,0,0,0,31.89,14.55ZM16,8.89,19.2,14H12.8Zm-5.08,4.34L7,8h7.2ZM17.8,8H25l-3.92,5.23Zm1.84,8L16,27.65,12.36,16ZM13.75,27.14,3.31,16h7Zm8-11.14h7L18.25,27.14Zm7.65-2H23l3.83-5.11ZM5.17,8.89,9,14H2.62Z"/><path d="M16,4a1,1,0,0,0,1-1V1a1,1,0,0,0-2,0V3A1,1,0,0,0,16,4Z"/><path d="M10.29,3.71a1,1,0,0,0,1.42,0,1,1,0,0,0,0-1.42l-1-1A1,1,0,0,0,9.29,2.71Z"/><path d="M21,4a1,1,0,0,0,.71-.29l1-1a1,1,0,1,0-1.42-1.42l-1,1a1,1,0,0,0,0,1.42A1,1,0,0,0,21,4Z"/></g></svg>