<?xml version="1.0" encoding="iso-8859-1"?>
<!-- Generator: Adobe Illustrator 18.0.0, SVG Export Plug-In . SVG Version: 6.00 Build 0)  -->
<!DOCTYPE svg PUBLIC "-//W3C//DTD SVG 1.1//EN" "http://www.w3.org/Graphics/SVG/1.1/DTD/svg11.dtd">
<svg version="1.1" id="Capa_1" xmlns="http://www.w3.org/2000/svg" xmlns:xlink="http://www.w3.org/1999/xlink" x="0px" y="0px"
	 viewBox="0 0 297 297" style="enable-background:new 0 0 297 297;" xml:space="preserve">
<path d="M283.686,76.81h-12.29V21.507c0-7.353-5.961-13.314-13.314-13.314H37.893c-7.353,0-13.314,5.961-13.314,13.314V76.81H13.314
	C5.961,76.81,0,82.771,0,90.124v151.572c0,7.353,5.961,13.314,13.314,13.314h3.072v20.483c0,7.353,5.961,13.314,13.314,13.314
	s13.314-5.961,13.314-13.314V255.01h209.948v20.483c0,7.353,5.961,13.314,13.314,13.314c7.353,0,13.314-5.961,13.314-13.314V255.01
	h4.097c7.353,0,13.314-5.961,13.314-13.314V90.124C297,82.771,291.039,76.81,283.686,76.81z M26.628,228.383V103.438h40.966v70.666
	c0,7.353,5.961,13.314,13.314,13.314h135.186c7.353,0,13.314-5.961,13.314-13.314v-70.666h40.966v124.945H26.628z M51.207,34.821
	h193.562v41.99h-28.676c-7.353,0-13.314,5.961-13.314,13.314v70.666H94.221V90.124c0-7.353-5.961-13.314-13.314-13.314h-29.7V34.821
	z"/>
<g>
</g>
<g>
</g>
<g>
</g>
<g>
</g>
<g>
</g>
<g>
</g>
<g>
</g>
<g>
</g>
<g>
</g>
<g>
</g>
<g>
</g>
<g>
</g>
<g>
</g>
<g>
</g>
<g>
</g>
</svg>
