<?xml version="1.0" standalone="no"?>
<!DOCTYPE svg PUBLIC "-//W3C//DTD SVG 20010904//EN"
 "http://www.w3.org/TR/2001/REC-SVG-20010904/DTD/svg10.dtd">
<svg version="1.0" xmlns="http://www.w3.org/2000/svg"
 width="898.000000pt" height="1024.000000pt" viewBox="0 0 898.000000 1024.000000"
 preserveAspectRatio="xMidYMid meet">

<g transform="translate(0.000000,1024.000000) scale(0.100000,-0.100000)"
fill="#000000" stroke="none">
<path d="M2758 10225 c-183 -35 -370 -136 -494 -267 -101 -106 -175 -234 -221
-385 -23 -78 -26 -106 -27 -238 -1 -167 16 -255 75 -383 l31 -67 164 -2290
c89 -1259 163 -2291 164 -2292 0 -2 755 -3 1678 -3 l1677 0 685 -1606 c377
-883 687 -1607 690 -1609 6 -3 1782 693 1793 704 6 6 -253 645 -268 660 -3 3
-803 -281 -1001 -356 -5 -2 -308 685 -675 1533 l-664 1536 -890 -6 c-489 -3
-1192 -9 -1561 -12 l-670 -7 -17 249 c-10 137 -20 268 -23 292 l-6 42 1131 0
1131 0 0 430 0 430 -1173 0 -1172 0 -48 868 c-26 477 -50 891 -54 920 -5 52
-5 52 23 52 43 0 148 27 223 57 251 100 454 320 534 578 68 218 53 448 -43
652 -96 206 -273 378 -472 460 -159 65 -362 88 -520 58z"/>
<path d="M1840 6347 c-311 -160 -555 -336 -809 -582 -475 -462 -805 -1048
-949 -1685 -232 -1023 42 -2110 733 -2910 560 -648 1329 -1058 2170 -1155 176
-20 586 -20 765 1 964 110 1859 652 2412 1459 82 119 218 351 218 371 0 21
-583 1205 -590 1197 -4 -4 -12 -44 -19 -88 -28 -183 -107 -438 -195 -629 -55
-121 -168 -305 -265 -434 -579 -766 -1526 -1123 -2461 -927 -251 53 -564 180
-784 320 -643 407 -1063 1086 -1136 1838 -15 154 -8 447 15 592 82 528 326
1008 701 1381 94 93 274 241 374 305 l24 16 -33 444 c-18 244 -36 468 -39 497
l-7 54 -125 -65z"/>
</g>
</svg>
